<?xml version="1.0" encoding="UTF-8"?>
<svg id="Layer_2" data-name="Layer 2" xmlns="http://www.w3.org/2000/svg" viewBox="0 0 166.47 82.58">
  <defs>
    <style>
      .cls-1, .cls-2, .cls-3, .cls-4, .cls-5, .cls-6, .cls-7, .cls-8, .cls-9 {
        stroke-miterlimit: 10;
      }

      .cls-1, .cls-4, .cls-5, .cls-7 {
        stroke: #000;
      }

      .cls-10 {
        fill: #020202;
      }

      .cls-11 {
        fill: #7f7f7e;
      }

      .cls-12 {
        fill: #1c1c1c;
      }

      .cls-13 {
        fill: #191919;
      }

      .cls-14, .cls-3 {
        fill: #353535;
      }

      .cls-15 {
        fill: #375b13;
      }

      .cls-2 {
        fill: #fbfcfa;
      }

      .cls-2, .cls-9 {
        stroke: #d00000;
      }

      .cls-3, .cls-6 {
        stroke: #232323;
      }

      .cls-4 {
        fill: #191918;
      }

      .cls-5 {
        stroke-width: 2px;
      }

      .cls-5, .cls-6, .cls-7, .cls-8, .cls-9 {
        fill: none;
      }

      .cls-8 {
        stroke: #e71800;
      }
    </style>
  </defs>
  <g id="Layer_1-2" data-name="Layer 1">
    <g>
      <rect class="cls-7" x="155" y="30.66" width="3.15" height="5.12" rx="1.57" ry="1.57"/>
      <path class="cls-11" d="m157.24,35.7c.26-.13-.33.08-.05.03.07-.01.14-.03.2-.05.18-.04-.37.02-.11.02.07,0,.18.02.25,0-.09.01-.37-.07-.11,0,.07.02.13.04.2.06.25.07-.24-.13-.09-.04.06.03.12.07.18.1.1.07.09.06-.02-.02-.11-.09-.11-.09-.02-.01.05.05.1.1.14.15.11.11-.17-.28-.05-.05.03.04.05.08.07.13.05.1.03.06-.05-.14,0,0,.12.43.13.47.09.32-.02-.34,0,0,0,.08.01.16.02.25.03.78-.13,1.56-.07,2.34.08,1.01.38,1.95,1.09,2.7l1.82-2.36c-.56-.31-1.11-.62-1.64-.99-.06-.04-.12-.08-.18-.13-.03-.02-.06-.04-.09-.06-.09-.07-.06-.04.09.07,0-.04-.28-.23-.31-.27-.11-.1-.22-.21-.33-.32-.1-.1-.19-.26-.3-.34.06.05.16.23.05.06-.04-.06-.08-.11-.11-.17-.08-.13-.16-.26-.22-.39-.02-.04-.12-.25-.03-.05.1.22-.02-.08-.03-.1-.04-.13-.07-.26-.1-.39-.06-.27,0,.23,0,.05,0-.07,0-.13-.01-.2s0-.13,0-.2c.01-.26.04-.06-.02.05.05-.1.06-.28.09-.39.07-.26-.11.19-.02.03.04-.07.08-.15.12-.22.4-.68.17-1.68-.54-2.05s-1.62-.18-2.05.54c-.92,1.55-.7,3.57.32,5.02.96,1.37,2.34,2.25,3.78,3.05.66.37,1.48.21,1.94-.39s.4-1.42-.12-1.97c-.21-.22.13.25,0,0,0,0-.14-.25-.14-.25.08.2.1.24.06.13-.02-.05-.03-.09-.05-.14-.03-.09-.05-.19-.07-.29-.08-.33.02.35,0,0,0-.1-.01-.21-.02-.31,0-.23,0-.46.02-.69.06-.92.14-1.86-.15-2.76-.36-1.09-1.09-1.88-2.15-2.3-.94-.37-1.96-.25-2.85.18-.71.34-.95,1.41-.54,2.05.47.73,1.3.91,2.05.54h0Z"/>
      <path class="cls-8" d="m158.82,38.24c.42-.26.8-.6,1.11-.98"/>
      <path class="cls-8" d="m158.9,36.99c.12-.19.26-.38.41-.55.17-.19.38-.38.44-.63"/>
      <path class="cls-8" d="m158.55,35.48c.04-.37.12-.73.24-1.08"/>
      <path class="cls-8" d="m157.56,34.78c.03-.34.01-.69-.05-1.03"/>
      <path class="cls-8" d="m156.97,34.88c-.33-.15-.64-.32-.94-.52"/>
      <path class="cls-8" d="m156.57,35.87c-.32.23-.61.51-.85.82"/>
      <path class="cls-8" d="m156.67,37.26c.03.43,0,.86-.06,1.28"/>
      <path class="cls-8" d="m157.65,38.4c-.02.39,0,.78.06,1.17"/>
      <path d="m147.82,20.52c.09,1.9,1.3,3.22,2.65,4.43s2.83,2.51,4.39,3.56c3.06,2.06,6.97,3.27,10.58,2.02,1.81-.63,1.03-3.53-.8-2.89-2.8.97-5.65-.01-8.04-1.57-1.21-.79-2.31-1.73-3.4-2.69-.79-.7-2.33-1.69-2.39-2.86-.1-1.92-3.1-1.93-3,0h0Z"/>
      <g>
        <g>
          <g>
            <path class="cls-13" d="m45.35,57.31c.17,6.27-1.65,12.86-6.18,17.16l-.07-.08c-4.84-4.22-9.33-8.85-13.39-13.83-2.65-3.25-5.14-6.69-6.79-10.54-.35-.8-.66-1.63-.92-2.47,3.85-.25,7.56-1.74,10.61-4.1,3.12-2.39,5.56-5.67,6.77-9.41l.34.11c1.24-.62,2.8-.04,3.73.98s1.39,2.37,1.81,3.69c1.96,6.03,3.92,12.16,4.09,18.49Z"/>
            <path class="cls-13" d="m35,24.02c0,.41.02.81.02,1.21-.02-.79-5.53,1.68-7.8,1.89.14-.28-.04-.62-.55-.75-.13-.03-.26-.05-.38-.05.15-.62.74-1.1,1.55-1.46,1.38-.61,3.39-.89,4.97-.94.97-.04,1.78,0,2.18.1Z"/>
            <path class="cls-13" d="m32.81,23.85v.06c-1.58.06-3.59.33-4.97.94l-.11-.22c.41-.73.89-1.52,1.67-1.82,1.16-.46,2.41.31,3.42,1.04Z"/>
            <path class="cls-13" d="m17.56,40.16c1.8,2.12,6.49,3.67,10.94,3.16l.1.13c-3.05,2.35-6.76,3.85-10.61,4.1-.83-2.63-1.22-5.4-.95-8.12.14.25.31.5.52.74Z"/>
            <path class="cls-13" d="m26.29,26.32c.12,0,.25.02.38.05.51.13.69.47.55.75-.57.05-.93-.04-.96-.35-.02-.16,0-.3.03-.44Z"/>
            <path class="cls-13" d="m.62,32.93c7.2-1.96,14.88-3.46,22.82-4.46-.55.57-1.19,1.13-1.9,1.65-2.6,1.95-6.17,3.57-10.3,4.64-1.72.44-4.67,1.13-6.58,1-2.53-.16-3.67-1.56-4.04-2.84Z"/>
          </g>
          <g>
            <path class="cls-7" d="m27.22,27.12c2.27-.2,7.79-2.68,7.8-1.89,0-.4-.02-.8-.02-1.21-.4-.1-1.21-.14-2.18-.1-1.58.06-3.6.33-4.97.94-.81.36-1.41.84-1.55,1.46-.04.14-.05.29-.03.44.03.31.39.4.96.35Z"/>
            <path class="cls-7" d="m27.72,24.63c.41-.73.89-1.52,1.67-1.82,1.16-.46,2.41.31,3.42,1.04"/>
            <path class="cls-7" d="m39.09,74.39c-4.84-4.22-9.33-8.85-13.39-13.83-2.65-3.25-5.14-6.69-6.79-10.54-.35-.8-.66-1.63-.92-2.47-.83-2.63-1.22-5.4-.95-8.12.06-.56.14-1.13.25-1.68"/>
            <path class="cls-7" d="m35.46,33.76c-.03.09-.06.18-.09.28-1.22,3.74-3.65,7.02-6.77,9.41-3.05,2.35-6.76,3.85-10.61,4.1-.05,0-.1,0-.15.01"/>
            <path class="cls-7" d="m28.5,43.32c-4.45.51-9.14-1.04-10.94-3.16-.2-.24-.38-.49-.52-.74-1.11-1.95-.39-4.11,1.31-5.97.94-1.03,2.15-1.99,3.5-2.9,1.39-.94,2.91-1.83,4.44-2.7.38-.22.78-.45.92-.73,0,0,0,0,0,0,.14-.28-.04-.62-.55-.75-.13-.03-.26-.05-.38-.05-.81-.02-1.49.52-1.82.96-.3.4-.64.8-1.02,1.18-.55.57-1.19,1.13-1.9,1.65-2.6,1.95-6.17,3.57-10.3,4.64-1.72.44-4.67,1.13-6.58,1-2.53-.16-3.67-1.56-4.04-2.84,7.2-1.96,14.88-3.46,22.82-4.46l.38-.05"/>
            <path class="cls-7" d="m35.71,34.15c1.24-.62,2.8-.04,3.73.98s1.39,2.37,1.81,3.69c1.96,6.03,3.92,12.16,4.09,18.49.17,6.27-1.65,12.86-6.18,17.16-.05.06-.1.1-.15.15"/>
          </g>
        </g>
        <g>
          <g>
            <path class="cls-15" d="m154.81,27.01c1.93,4.71,2.2,9.93,2.44,15.02.14,2.91.28,5.84.28,8.76,0,4.25-.26,8.48-1.22,12.61-.23,1-.51,2-1.09,2.84-.7,1-1.78,1.67-2.83,2.3-3.72,2.25-7.47,4.52-11.57,5.97-3.55,1.26-7.3,1.89-11.03,2.43-10.38,1.53-20.84,2.5-31.32,2.93-6.33.26-12.67.31-18.99.7-11.61.72-23.68,2.5-34.58-1.55-1.8-.67-3.64-1.56-4.74-3.14-.8-1.14-1.14-2.53-1.45-3.88-1.61-7.04-2.83-14.17-3.66-21.34-.45-3.92.85-7.91.44-11.41-.43-3.69-.91-6.93,2.26-9.74,1.19-1.05,2.64-1.76,4.1-2.4,10.77-4.7,22.61-6.23,34.27-7.67,7.07-.88,14.16-1.75,21.28-1.6,6.04.13,12.08.99,18.11.58,4.87-.33,9.79-1.48,14.57-.52,2.93.59,5.68,1.95,8.65,2.3,3.89.46,8.15-.8,11.58,1.09,2.05,1.13,3.4,3.2,4.33,5.35l.15.37Z"/>
            <path class="cls-14" d="m155.41,27.59c2.97,1.47,6.35,2.11,9.65,1.82-1.52,2.71-2.53,5.7-2.94,8.78-.16,1.14-.23,2.29-.41,3.43-.51,3.25-1.88,6.36-3.94,8.93-.05.06-.07.15-.07.22h-.17c0-2.92-.14-5.85-.28-8.76-.24-5.09-.51-10.31-2.44-15.02.24.19.59.39.59.59Z"/>
          </g>
          <g>
            <path class="cls-5" d="m157.53,50.79c0,4.25-.26,8.48-1.22,12.61-.23,1-.51,2-1.09,2.84-.7,1-1.78,1.67-2.83,2.3-3.72,2.25-7.47,4.52-11.57,5.97-3.55,1.26-7.3,1.89-11.03,2.43-10.38,1.53-20.84,2.5-31.32,2.93-6.33.26-12.67.31-18.99.7-11.61.72-23.68,2.5-34.58-1.55-1.8-.67-3.64-1.56-4.74-3.14-.8-1.14-1.14-2.53-1.45-3.88-1.61-7.04-2.83-14.17-3.66-21.34-.45-3.92.85-7.91.44-11.41-.43-3.69-.91-6.93,2.26-9.74,1.19-1.05,2.64-1.76,4.1-2.4,10.77-4.7,22.61-6.23,34.27-7.67,7.07-.88,14.16-1.75,21.28-1.6,6.04.13,12.08.99,18.11.58,4.87-.33,9.79-1.48,14.57-.52,2.93.59,5.68,1.95,8.65,2.3,3.89.46,8.15-.8,11.58,1.09,2.05,1.13,3.4,3.2,4.33,5.35l.15.37c1.93,4.71,2.2,9.93,2.44,15.02.14,2.91.28,5.84.28,8.76Z"/>
            <path class="cls-7" d="m158.04,50.76c.12.11-.09.33-.24.24-.08-.05-.11-.13-.11-.22,0-.08.03-.16.07-.22,2.05-2.57,3.43-5.68,3.94-8.93.18-1.14.25-2.29.41-3.43.42-3.08,1.42-6.08,2.94-8.78-3.3.29-6.68-.35-9.65-1.82,0-.2-.36-.39-.59-.59-.11-.09-.2-.18-.2-.28"/>
          </g>
        </g>
        <g>
          <path class="cls-12" d="m161.82,28.36c-.21,0-1.07-.62-1.25-.87-2.09-2.88-2.64-6.88-5.44-9.07-1.28-1-2.87-1.49-4.42-1.95-3.3-1-6.61-1.99-9.91-2.98-2.1-.63-4.23-1.27-6.42-1.36-2.03-.09-4.02.31-5.95.9-1.65.51-2.43,1.47-3.45,2.14-2.53,1.65-7.24,1.63-10.47,2.11-4.1.6-8.38,1.2-12.3-.1l.04-.1c-1.74-1.09-2.58-3.4-3.84-5.03-1.1-1.42-2.65-2.4-4.18-3.36-2.84-1.77-6.12-3.63-9.36-2.75-.61.17-1.19.43-1.82.48-.63.06-1.33-.15-1.65-.69-.42-.72.03-1.63.55-2.28.57-.7,1.23-1.32,1.97-1.84,2.19-1.53,5.34.16,7.53,1.69,2.19,1.53,3.86,3.68,5.68,5.64,1.42,1.53,2.94,2.98,4.45,4.42.8.76,1.62,1.53,2.64,1.94,1.16.47,2.46.41,3.71.28,5.51-.57,10.8-2.41,16.17-3.8,5.36-1.39,11.03-2.32,16.42-1.05,2.33.55,4.54,1.5,6.74,2.44,2.4,1.03,4.81,2.06,7.22,3.09,1.26.54,2.54,1.09,3.59,1.97,1.48,1.24,2.37,3.04,3.23,4.77.9,1.85,2.51,4.25,3.45,6.12-.43-.17-.89-.27-1.35-.36-.51-.1-1.04-.17-1.56-.16v-.24Z"/>
          <g>
            <path class="cls-7" d="m165.83,29.71c-.33-.26-.7-.45-1.09-.59-.43-.17-.89-.27-1.35-.36-.51-.1-1.04-.17-1.56-.16-.4,0-.8.06-1.18.2-.31.11-.59.35-.84.66"/>
            <path class="cls-5" d="m161.85,28.28c.02.06,0,.09-.04.09-.21,0-1.07-.62-1.25-.87-2.09-2.88-2.64-6.88-5.44-9.07-1.28-1-2.87-1.49-4.42-1.95-3.3-1-6.61-1.99-9.91-2.98-2.1-.63-4.23-1.27-6.42-1.36-2.03-.09-4.02.31-5.95.9-1.65.51-2.43,1.47-3.45,2.14-2.53,1.65-7.24,1.63-10.47,2.11-4.1.6-8.38,1.2-12.3-.1-.09-.03-.18-.07-.28-.1"/>
            <path class="cls-5" d="m102.23,17.06c-1.74-1.09-2.58-3.4-3.84-5.03-1.1-1.42-2.65-2.4-4.18-3.36-2.84-1.77-6.12-3.63-9.36-2.75-.61.17-1.19.43-1.82.48-.63.06-1.33-.15-1.65-.69-.42-.72.03-1.63.55-2.28.57-.7,1.23-1.32,1.97-1.84,2.19-1.53,5.34.16,7.53,1.69,2.19,1.53,3.86,3.68,5.68,5.64,1.42,1.53,2.94,2.98,4.45,4.42.8.76,1.62,1.53,2.64,1.94,1.16.47,2.46.41,3.71.28,5.51-.57,10.8-2.41,16.17-3.8,5.36-1.39,11.03-2.32,16.42-1.05,2.33.55,4.54,1.5,6.74,2.44,2.4,1.03,4.81,2.06,7.22,3.09,1.26.54,2.54,1.09,3.59,1.97,1.48,1.24,2.37,3.04,3.23,4.77.9,1.85,2.51,4.25,3.45,6.12l.07.14"/>
          </g>
        </g>
        <path class="cls-5" d="m35.77,38.42c34.16-3.14,68.39-5.51,102.66-7.13,5.8-.27,11.69-.54,17.19-2.4"/>
        <path class="cls-5" d="m35.16,45.81c34.16-3.14,69.78-5.42,104.05-7.04,5.8-.27,11.69-.54,17.19-2.4"/>
        <path class="cls-7" d="m38.51,29.48c4.83-1.03,10.46-2.62,15.37-2.08,2.18.24,4.3.92,6.48,1.04,3.32.2,6.56-.86,9.72-1.91,7.96-2.64,18.43-3.7,26.82-3.67,3.06.01,6.08.56,9.11.95,6.16.8,12.39.96,18.6,1.11,2.72.07,5.44.14,8.14-.18,4.66-.55,8.97-2.03,12.81-4.72"/>
        <g>
          <path class="cls-10" d="m35.79,37.08c.59-.04,1.31,9.93,1.9,9.89s-.12-10.02.47-10.06,1.31,9.93,1.9,9.89-.12-10.02.47-10.06,1.31,9.93,1.91,9.89-.12-10.02.47-10.06,1.31,9.93,1.91,9.89-.12-10.02.47-10.06,1.31,9.93,1.91,9.89-.12-10.02.47-10.06,1.31,9.93,1.91,9.89-.12-10.02.47-10.06,1.31,9.93,1.91,9.89-.12-10.02.47-10.06,1.31,9.93,1.91,9.89-.12-10.02.47-10.06,1.31,9.93,1.91,9.89-.12-10.02.47-10.06,1.31,9.93,1.91,9.89-.12-10.02.47-10.06,1.31,9.93,1.91,9.89-.12-10.02.47-10.06,1.31,9.93,1.91,9.89-.12-10.02.47-10.06,1.31,9.93,1.91,9.89-.12-10.02.47-10.06,1.31,9.93,1.91,9.89-.12-10.02.47-10.06,1.31,9.93,1.91,9.89-.12-10.02.48-10.06,1.31,9.93,1.91,9.89-.12-10.02.48-10.06,1.31,9.93,1.91,9.89-.12-10.02.47-10.06,1.31,9.93,1.91,9.89-.12-10.02.47-10.06,1.31,9.93,1.91,9.89-.12-10.02.47-10.06,1.31,9.93,1.91,9.89-.12-10.02.47-10.06,1.31,9.93,1.91,9.89-.12-10.02.47-10.06,1.31,9.93,1.91,9.89-.12-10.02.48-10.06,1.31,9.93,1.91,9.89-.12-10.02.48-10.06,1.31,9.93,1.91,9.89-.12-10.02.47-10.06,1.31,9.93,1.91,9.89-.12-10.02.47-10.06,1.31,9.93,1.91,9.89-.12-10.02.48-10.06,1.31,9.93,1.91,9.89-.12-10.02.48-10.06,1.31,9.93,1.91,9.89-.12-10.02.48-10.06,1.31,9.93,1.91,9.89-.12-10.02.48-10.06,1.31,9.93,1.91,9.89-.12-10.02.48-10.06,1.31,9.93,1.91,9.89-.12-10.02.48-10.06,1.31,9.93,1.91,9.89-.12-10.02.47-10.06,1.31,9.93,1.91,9.89-.12-10.02.47-10.06,1.31,9.93,1.91,9.89-.12-10.02.47-10.06,1.31,9.93,1.91,9.89-.12-10.02.47-10.06,1.31,9.93,1.91,9.89-.12-10.02.48-10.06,1.31,9.93,1.91,9.89-.12-10.02.48-10.06,1.31,9.93,1.91,9.89-.12-10.02.47-10.06,1.31,9.93,1.91,9.89-.12-10.02.48-10.06,1.31,9.93,1.91,9.89-.12-10.02.48-10.06,1.31,9.93,1.91,9.89-.12-10.02.48-10.06,1.31,9.93,1.91,9.89-.12-10.02.48-10.06,1.31,9.93,1.91,9.89-.12-10.02.48-10.06,1.32,9.93,1.91,9.89-.12-10.02.48-10.06,1.32,9.93,1.91,9.89-.12-10.02.47-10.06,1.32,9.93,1.91,9.89-.12-10.02.48-10.06,1.31,9.93,1.91,9.89-.12-10.02.48-10.06,1.32,9.93,1.91,9.89-.12-10.02.48-10.06,1.32,9.93,1.92,9.89-.12-10.02.48-10.06,1.32,9.93,1.92,9.89-.12-10.02.49-10.06,1.32,9.93,1.92,9.89"/>
          <path class="cls-6" d="m35.79,37.08c.59-.04,1.31,9.93,1.9,9.89s-.12-10.02.47-10.06,1.31,9.93,1.9,9.89-.12-10.02.47-10.06,1.31,9.93,1.91,9.89-.12-10.02.47-10.06,1.31,9.93,1.91,9.89-.12-10.02.47-10.06,1.31,9.93,1.91,9.89-.12-10.02.47-10.06,1.31,9.93,1.91,9.89-.12-10.02.47-10.06,1.31,9.93,1.91,9.89-.12-10.02.47-10.06,1.31,9.93,1.91,9.89-.12-10.02.47-10.06,1.31,9.93,1.91,9.89-.12-10.02.47-10.06,1.31,9.93,1.91,9.89-.12-10.02.47-10.06,1.31,9.93,1.91,9.89-.12-10.02.47-10.06,1.31,9.93,1.91,9.89-.12-10.02.47-10.06,1.31,9.93,1.91,9.89-.12-10.02.47-10.06,1.31,9.93,1.91,9.89-.12-10.02.47-10.06,1.31,9.93,1.91,9.89-.12-10.02.48-10.06,1.31,9.93,1.91,9.89-.12-10.02.48-10.06,1.31,9.93,1.91,9.89-.12-10.02.47-10.06,1.31,9.93,1.91,9.89-.12-10.02.47-10.06,1.31,9.93,1.91,9.89-.12-10.02.47-10.06,1.31,9.93,1.91,9.89-.12-10.02.47-10.06,1.31,9.93,1.91,9.89-.12-10.02.47-10.06,1.31,9.93,1.91,9.89-.12-10.02.48-10.06,1.31,9.93,1.91,9.89-.12-10.02.48-10.06,1.31,9.93,1.91,9.89-.12-10.02.47-10.06,1.31,9.93,1.91,9.89-.12-10.02.47-10.06,1.31,9.93,1.91,9.89-.12-10.02.48-10.06,1.31,9.93,1.91,9.89-.12-10.02.48-10.06,1.31,9.93,1.91,9.89-.12-10.02.48-10.06,1.31,9.93,1.91,9.89-.12-10.02.48-10.06,1.31,9.93,1.91,9.89-.12-10.02.48-10.06,1.31,9.93,1.91,9.89-.12-10.02.48-10.06,1.31,9.93,1.91,9.89-.12-10.02.47-10.06,1.31,9.93,1.91,9.89-.12-10.02.47-10.06,1.31,9.93,1.91,9.89-.12-10.02.47-10.06,1.31,9.93,1.91,9.89-.12-10.02.47-10.06,1.31,9.93,1.91,9.89-.12-10.02.48-10.06,1.31,9.93,1.91,9.89-.12-10.02.48-10.06,1.31,9.93,1.91,9.89-.12-10.02.47-10.06,1.31,9.93,1.91,9.89-.12-10.02.48-10.06,1.31,9.93,1.91,9.89-.12-10.02.48-10.06,1.31,9.93,1.91,9.89-.12-10.02.48-10.06,1.31,9.93,1.91,9.89-.12-10.02.48-10.06,1.31,9.93,1.91,9.89-.12-10.02.48-10.06,1.32,9.93,1.91,9.89-.12-10.02.48-10.06,1.32,9.93,1.91,9.89-.12-10.02.47-10.06,1.32,9.93,1.91,9.89-.12-10.02.48-10.06,1.31,9.93,1.91,9.89-.12-10.02.48-10.06,1.32,9.93,1.91,9.89-.12-10.02.48-10.06,1.32,9.93,1.92,9.89-.12-10.02.48-10.06,1.32,9.93,1.92,9.89-.12-10.02.49-10.06,1.32,9.93,1.92,9.89"/>
        </g>
        <rect class="cls-4" x="63.89" y="7.42" width="22.83" height="5.9" rx="2.95" ry="2.95" transform="translate(8.01 45.72) rotate(-35.56)"/>
        <rect class="cls-1" x="70.62" y="8.32" width="9.05" height="4.33" rx="2.16" ry="2.16" transform="translate(7.91 45.65) rotate(-35.56)"/>
        <g>
          <rect class="cls-2" x="107.31" y="50.45" width="43.93" height="14.92" rx="5.48" ry="5.48" transform="translate(-7.11 19.63) rotate(-8.45)"/>
          <g>
            <path class="cls-9" d="m117.42,56l.26,1.91c.17,1.21.33,2.43.71,3.59.08.24.18.5.38.65.21.16.5.18.76.16,1.08-.06,2.16-.63,2.63-1.6.3-.62.33-1.33.33-2.01-.01-1.19-.13-2.38-.35-3.55"/>
            <path class="cls-9" d="m124.68,61.97c.09-.94-.08-1.88-.16-2.81-.09-1.06-.06-2.14.1-3.19.04-.23.08-.47.2-.67s.35-.35.58-.32c.21.03.38.19.52.35,1.13,1.32,1.47,3.14,2.19,4.72.24.53.62,1.09,1.2,1.13.39.02.76-.23.97-.55s.3-.72.34-1.11c.21-1.79-.26-3.58-.72-5.32-.01,0,.05-.02.04-.02"/>
            <path class="cls-9" d="m129.99,54.21c1.8-.09,3.59-.27,5.38-.55"/>
            <path class="cls-9" d="m133.12,53.97c.22,2.15.49,4.29.83,6.43"/>
            <path class="cls-9" d="m141.53,52.21c-.79.15-1.57.36-2.33.63-.48.17-.96.37-1.32.73-.48.48-.67,1.24-.47,1.9.07.23.2.46.41.58.15.09.33.11.5.12,1.21.08,2.41-.21,3.59-.5-.83.15-1.65.3-2.48.48-.54.12-1.11.26-1.47.67-.45.51-.44,1.36.03,1.85.37.38.93.52,1.46.49s1.04-.2,1.54-.36c.89-.28,1.79-.51,2.69-.7-.19-.79-.3-1.59-.34-2.4.43-.09.86-.17,1.29-.26.77-.15,1.56-.32,2.18-.8s1-1.36.66-2.06c-.22-.45-.69-.74-1.19-.84s-1-.03-1.49.07c-.67.14-1.34.35-1.97.63"/>
            <path class="cls-9" d="m110.77,56.6l1.12,7.7"/>
            <path class="cls-9" d="m115.44,56.13l1.29,7.23"/>
            <path class="cls-9" d="m111.34,60.39c1.58-.18,3.14-.48,4.67-.9"/>
            <path class="cls-9" d="m143.27,55.83l1.25.39c1.38.43,2.77.85,4.15,1.28"/>
          </g>
        </g>
        <path d="m34.85,25.45c5.99.27,11.97-.97,17.38-3.55,2.66-1.27,4.9-3.09,7.43-4.56,1.63-.94,5.06-1.75,5.46.98l1.45-1.9c-3.54.05-7.08.1-10.62.15-1.93.03-1.93,3.03,0,3,3.54-.05,7.08-.1,10.62-.15,1.07-.02,1.59-.94,1.45-1.9-.39-2.66-3.21-4.22-5.72-4.13-3.2.11-5.67,2.49-8.24,4.09-5.74,3.58-12.46,5.27-19.21,4.97-1.93-.09-1.93,2.91,0,3h0Z"/>
      </g>
      <path class="cls-3" d="m164.45,45.02c0,.98-.79,1.77-1.77,1.77-.73,0-1.36-.44-1.63-1.07l-.11.08-1.93-2.88c-.09-.14-.18-.29-.26-.43-.84-1.47-.92-2.97-.15-3.49.77-.52,2.13.13,3.17,1.46.1.12.2.26.3.4l1.94,2.89-.06.04c.31.32.51.76.51,1.24Z"/>
    </g>
  </g>
</svg>