<?xml version="1.0" encoding="UTF-8"?>
<svg id="Layer_2" data-name="Layer 2" xmlns="http://www.w3.org/2000/svg" xmlns:xlink="http://www.w3.org/1999/xlink" viewBox="0 0 149.85 134.11">
  <defs>
    <style>
      .cls-1 {
        fill: #5fe700;
        filter: url(#outer-glow-1);
      }

      .cls-1, .cls-2, .cls-3, .cls-4, .cls-5 {
        stroke-miterlimit: 10;
      }

      .cls-1, .cls-2, .cls-5 {
        stroke: #000;
      }

      .cls-6 {
        fill: #fc0606;
      }

      .cls-7 {
        fill: #f75757;
      }

      .cls-8 {
        fill: #7f4f4f;
      }

      .cls-9 {
        fill: #999898;
      }

      .cls-10 {
        fill: #828282;
      }

      .cls-2, .cls-3, .cls-4, .cls-5 {
        fill: none;
      }

      .cls-3 {
        stroke: #459904;
      }

      .cls-4 {
        stroke: #81ea26;
      }

      .cls-11 {
        opacity: .65;
      }

      .cls-5 {
        stroke-width: .5px;
      }
    </style>
    <filter id="outer-glow-1" filterUnits="userSpaceOnUse">
      <feOffset dx="0" dy="0"/>
      <feGaussianBlur result="blur" stdDeviation="10"/>
      <feFlood flood-color="#58f903" flood-opacity="1"/>
      <feComposite in2="blur" operator="in"/>
      <feComposite in="SourceGraphic"/>
    </filter>
  </defs>
  <g id="Layer_1-2" data-name="Layer 1">
    <g>
      <g>
        <g>
          <g>
            <g>
              <path d="m148.6,87.94c.19,1.22.16,2.82-.61,3.79-.49.62-1.07.71-1.82.99-8.83,3.3-18.18,4.93-27.42,6.79-13.03,2.64-23.92,4.01-36.7,7.73-2.87.84-6.32,1.76-9.31,1.55-2.54-.19-5.31-.43-7.16-2.38-.22-.24-.44-.5-.64-.76-1.34-1.87-1.79-4.38-.76-6.51.99-2.03,2.92-3.46,4.94-4.47,3.3-1.64,6.97-2.39,10.58-3.11,8.33-1.66,16.66-3.32,24.99-4.99,2.43-.48,4.86-.96,7.28-1.45,10.67-2.13,23.6-4.42,34.28-6.55.26.29.47.61.65.95.46.86.61,1.85.77,2.81.3,1.87.6,3.75.9,5.62Z"/>
              <path d="m64.2,99.14c-1.03,2.13-.58,4.64.76,6.51l-.12.1c-.35-.28-.76-.54-1.4-.84-3.92-1.82-9.43.16-13.19,1.55-4.72,1.75-9.72,5.04-13.96,7.76-5.12,3.27-7.21,4.36-11.63,8.53-1.64,1.54-7.66,5.23-9.58,6.41-1.92,1.19-4.3,1.85-6.45,1.19-8.16-2.47-7.28-12.79-2.58-16.13,6.42-4.57,15.7-6.07,22.49-10.08,9.09-5.36,19.39-13.96,23.27-24.05,2.84-7.39,12.69-5.72,20.33-7.46,12.05-2.75,24.29-4.88,36.44-7.13,3.92-.72,8.72-1.32,12.61-2.14,7.98,4.39,16.85,8.01,23.78,13.93.47.4.92.81,1.3,1.28-10.69,2.13-23.62,4.42-34.28,6.55-2.43.49-4.86.97-7.28,1.45-8.33,1.67-16.66,3.33-24.99,4.99-3.61.72-7.28,1.47-10.58,3.11-2.02,1.01-3.95,2.44-4.94,4.47Z"/>
            </g>
            <path class="cls-2" d="m64.85,105.75c-.35-.28-.76-.54-1.4-.84-3.92-1.82-9.43.16-13.19,1.55-4.72,1.75-9.72,5.04-13.96,7.76-5.12,3.27-7.21,4.36-11.63,8.53-1.64,1.54-7.66,5.23-9.58,6.41-1.92,1.19-4.3,1.85-6.45,1.19-8.16-2.47-7.28-12.79-2.58-16.13,6.42-4.57,15.7-6.07,22.49-10.08,9.09-5.36,19.39-13.96,23.27-24.05,2.84-7.39,12.69-5.72,20.33-7.46,12.05-2.75,24.29-4.88,36.44-7.13,3.92-.72,8.72-1.32,12.61-2.14,7.98,4.39,16.85,8.01,23.78,13.93.47.4.92.81,1.3,1.28.26.29.47.61.65.95.46.86.61,1.85.77,2.81.3,1.87.6,3.75.9,5.62.19,1.22.16,2.82-.61,3.79-.49.62-1.07.71-1.82.99-8.83,3.3-18.18,4.93-27.42,6.79-13.03,2.64-23.92,4.01-36.7,7.73-2.87.84-6.32,1.76-9.31,1.55-2.54-.19-5.31-.43-7.16-2.38-.22-.24-.44-.5-.64-.76-1.34-1.87-1.79-4.38-.76-6.51.99-2.03,2.92-3.46,4.94-4.47,3.3-1.64,6.97-2.39,10.58-3.11,8.33-1.66,16.66-3.32,24.99-4.99,2.43-.48,4.86-.96,7.28-1.45,10.67-2.13,23.6-4.42,34.28-6.55.05,0,.11-.02.16-.03"/>
          </g>
          <g>
            <g>
              <path d="m57.63,84.87c.68,2.48-.77,5.43-3.6,6.97-3.08,1.66-6.66,1.05-8.21-1.34-.06-.09-.12-.19-.18-.3-1.43-2.64.02-6.17,3.22-7.91,3.2-1.73,6.95-1,8.38,1.64.16.31.29.63.39.95Z"/>
              <path d="m58.86,88.78c-.23,1.97-1.65,3.66-3.4,4.59-1.75.94-3.78,1.19-5.76,1.16-.8-.02-1.63-.09-2.31-.5-1.12-.67-1.55-2.06-1.89-3.33l.32-.2c1.54,2.39,5.13,3,8.21,1.34,2.83-1.54,4.28-4.48,3.6-6.97.93,1.05,1.4,2.51,1.23,3.91Z"/>
            </g>
            <g>
              <path class="cls-2" d="m57.63,84.87c-.09-.33-.22-.64-.39-.95-1.43-2.64-5.18-3.37-8.38-1.64-3.2,1.74-4.65,5.27-3.22,7.91.05.11.12.21.18.3,1.54,2.39,5.13,3,8.21,1.34,2.83-1.54,4.28-4.48,3.6-6.97Z"/>
              <path class="cls-2" d="m45.5,90.7c.34,1.26.78,2.65,1.89,3.33.68.41,1.51.49,2.31.5,1.98.04,4.01-.22,5.76-1.16,1.75-.93,3.16-2.62,3.4-4.59.16-1.4-.3-2.86-1.23-3.91-.04-.05-.09-.09-.12-.14"/>
            </g>
          </g>
          <path class="cls-2" d="m87.08,71.83l-.19,3.23c-.04.61-.07,1.24.2,1.79.28.58.84.96,1.39,1.28,1.82,1.05,3.84,1.74,5.93,2.02.67.09,1.35.14,2.03.17,2.49.14,5.01.14,7.46-.3,2.62-.48,5.12-1.47,7.56-2.56.57-.25,1.16-.53,1.54-1.02.24-.31.39-.68.49-1.06.36-1.39.14-2.92-.62-4.14"/>
        </g>
        <g>
          <g>
            <g>
              <path d="m146.6,90.94c.19,1.22.16,2.82-.61,3.79-.49.62-1.07.71-1.82.99-8.83,3.3-18.18,4.93-27.42,6.79-13.03,2.64-23.92,4.01-36.7,7.73-2.87.84-6.32,1.76-9.31,1.55-2.54-.19-5.31-.43-7.16-2.38-.22-.24-.44-.5-.64-.76-1.34-1.87-1.79-4.38-.76-6.51.99-2.03,2.92-3.46,4.94-4.47,3.3-1.64,6.97-2.39,10.58-3.11,8.33-1.66,16.66-3.32,24.99-4.99,2.43-.48,4.86-.96,7.28-1.45,10.67-2.13,23.6-4.42,34.28-6.55.26.29.47.61.65.95.46.86.61,1.85.77,2.81.3,1.87.6,3.75.9,5.62Z"/>
              <path d="m62.2,102.14c-1.03,2.13-.58,4.64.76,6.51l-.12.1c-.35-.28-.76-.54-1.4-.84-3.92-1.82-9.43.16-13.19,1.55-4.72,1.75-9.72,5.04-13.96,7.76-5.12,3.27-7.21,4.36-11.63,8.53-1.64,1.54-7.66,5.23-9.58,6.41-1.92,1.19-4.3,1.85-6.45,1.19-8.16-2.47-7.28-12.79-2.58-16.13,6.42-4.57,15.7-6.07,22.49-10.08,9.09-5.36,19.39-13.96,23.27-24.05,2.84-7.39,12.69-5.72,20.33-7.46,12.05-2.75,24.29-4.88,36.44-7.13,3.92-.72,8.72-1.32,12.61-2.14,7.98,4.39,16.85,8.01,23.78,13.93.47.4.92.81,1.3,1.28-10.69,2.13-23.62,4.42-34.28,6.55-2.43.49-4.86.97-7.28,1.45-8.33,1.67-16.66,3.33-24.99,4.99-3.61.72-7.28,1.47-10.58,3.11-2.02,1.01-3.95,2.44-4.94,4.47Z"/>
            </g>
            <path class="cls-2" d="m62.85,108.75c-.35-.28-.76-.54-1.4-.84-3.92-1.82-9.43.16-13.19,1.55-4.72,1.75-9.72,5.04-13.96,7.76-5.12,3.27-7.21,4.36-11.63,8.53-1.64,1.54-7.66,5.23-9.58,6.41-1.92,1.19-4.3,1.85-6.45,1.19-8.16-2.47-7.28-12.79-2.58-16.13,6.42-4.57,15.7-6.07,22.49-10.08,9.09-5.36,19.39-13.96,23.27-24.05,2.84-7.39,12.69-5.72,20.33-7.46,12.05-2.75,24.29-4.88,36.44-7.13,3.92-.72,8.72-1.32,12.61-2.14,7.98,4.39,16.85,8.01,23.78,13.93.47.4.92.81,1.3,1.28.26.29.47.61.65.95.46.86.61,1.85.77,2.81.3,1.87.6,3.75.9,5.62.19,1.22.16,2.82-.61,3.79-.49.62-1.07.71-1.82.99-8.83,3.3-18.18,4.93-27.42,6.79-13.03,2.64-23.92,4.01-36.7,7.73-2.87.84-6.32,1.76-9.31,1.55-2.54-.19-5.31-.43-7.16-2.38-.22-.24-.44-.5-.64-.76-1.34-1.87-1.79-4.38-.76-6.51.99-2.03,2.92-3.46,4.94-4.47,3.3-1.64,6.97-2.39,10.58-3.11,8.33-1.66,16.66-3.32,24.99-4.99,2.43-.48,4.86-.96,7.28-1.45,10.67-2.13,23.6-4.42,34.28-6.55.05,0,.11-.02.16-.03"/>
          </g>
          <g>
            <g>
              <path d="m55.63,87.87c.68,2.48-.77,5.43-3.6,6.97-3.08,1.66-6.66,1.05-8.21-1.34-.06-.09-.12-.19-.18-.3-1.43-2.64.02-6.17,3.22-7.91,3.2-1.73,6.95-1,8.38,1.64.16.31.29.63.39.95Z"/>
              <path d="m56.86,91.78c-.23,1.97-1.65,3.66-3.4,4.59-1.75.94-3.78,1.19-5.76,1.16-.8-.02-1.63-.09-2.31-.5-1.12-.67-1.55-2.06-1.89-3.33l.32-.2c1.54,2.39,5.13,3,8.21,1.34,2.83-1.54,4.28-4.48,3.6-6.97.93,1.05,1.4,2.51,1.23,3.91Z"/>
            </g>
            <g>
              <path class="cls-2" d="m55.63,87.87c-.09-.33-.22-.64-.39-.95-1.43-2.64-5.18-3.37-8.38-1.64-3.2,1.74-4.65,5.27-3.22,7.91.05.11.12.21.18.3,1.54,2.39,5.13,3,8.21,1.34,2.83-1.54,4.28-4.48,3.6-6.97Z"/>
              <path class="cls-2" d="m43.5,93.7c.34,1.26.78,2.65,1.89,3.33.68.41,1.51.49,2.31.5,1.98.04,4.01-.22,5.76-1.16,1.75-.93,3.16-2.62,3.4-4.59.16-1.4-.3-2.86-1.23-3.91-.04-.05-.09-.09-.12-.14"/>
            </g>
          </g>
          <path class="cls-2" d="m85.08,74.83l-.19,3.23c-.04.61-.07,1.24.2,1.79.28.58.84.96,1.39,1.28,1.82,1.05,3.84,1.74,5.93,2.02.67.09,1.35.14,2.03.17,2.49.14,5.01.14,7.46-.3,2.62-.48,5.12-1.47,7.56-2.56.57-.25,1.16-.53,1.54-1.02.24-.31.39-.68.49-1.06.36-1.39.14-2.92-.62-4.14"/>
        </g>
      </g>
      <g>
        <g class="cls-11">
          <g>
            <path class="cls-10" d="m149.25,87.65c.19,1.22.16,2.82-.61,3.79-.49.62-1.07.71-1.82.99-8.83,3.3-18.18,4.92-27.42,6.79-13.03,2.64-23.92,4.01-36.7,7.73-2.87.83-6.32,1.76-9.31,1.55-2.54-.19-5.31-.43-7.16-2.38-.22-.23-.43-.49-.63-.75-1.34-1.87-1.8-4.39-.77-6.52.99-2.03,2.92-3.46,4.94-4.48,3.3-1.64,6.97-2.38,10.58-3.1,8.33-1.66,16.66-3.33,24.99-4.99,2.43-.48,4.86-.97,7.28-1.45,10.67-2.13,23.6-4.43,34.28-6.55.26.29.47.6.65.94.46.87.61,1.85.77,2.82.3,1.87.6,3.74.9,5.61Z"/>
            <path class="cls-10" d="m64.1,104.63c-3.92-1.82-9.43.16-13.19,1.55-4.72,1.75-9.72,5.03-13.96,7.76-5.12,3.27-7.21,4.36-11.63,8.53-1.64,1.54-7.66,5.23-9.58,6.41-1.92,1.18-4.3,1.85-6.45,1.19-8.16-2.48-7.28-12.79-2.58-16.13,6.42-4.58,15.7-6.08,22.49-10.08,9.09-5.37,19.39-13.96,23.27-24.05,2.84-7.39,12.69-5.72,20.33-7.46,12.05-2.75,24.29-4.89,36.44-7.13,3.92-.73,8.72-1.32,12.61-2.15,7.98,4.39,16.85,8.01,23.77,13.93.47.4.92.82,1.31,1.29-10.69,2.13-23.62,4.42-34.28,6.55-2.43.48-4.86.97-7.28,1.45-8.33,1.66-16.66,3.33-24.99,4.99-3.61.72-7.28,1.46-10.58,3.1-2.02,1.02-3.95,2.44-4.94,4.48-1.03,2.13-.57,4.65.77,6.52l-.12.09c-.35-.28-.76-.55-1.4-.84Z"/>
          </g>
          <path class="cls-2" d="m65.5,105.46c-.35-.28-.76-.55-1.4-.84-3.92-1.82-9.43.16-13.19,1.55-4.72,1.75-9.72,5.03-13.96,7.76-5.12,3.27-7.21,4.36-11.63,8.53-1.64,1.54-7.66,5.23-9.58,6.41-1.92,1.18-4.3,1.85-6.45,1.19-8.16-2.48-7.28-12.79-2.58-16.13,6.42-4.58,15.7-6.08,22.49-10.08,9.09-5.37,19.39-13.96,23.27-24.05,2.84-7.39,12.69-5.72,20.33-7.46,12.05-2.75,24.29-4.89,36.44-7.13,3.92-.73,8.72-1.32,12.61-2.15,7.98,4.39,16.85,8.01,23.77,13.93.47.4.92.82,1.31,1.29.26.29.47.6.65.94.46.87.61,1.85.77,2.82.3,1.87.6,3.74.9,5.61.19,1.22.16,2.82-.61,3.79-.49.62-1.07.71-1.82.99-8.83,3.3-18.18,4.92-27.42,6.79-13.03,2.64-23.92,4.01-36.7,7.73-2.87.83-6.32,1.76-9.31,1.55-2.54-.19-5.31-.43-7.16-2.38-.22-.23-.43-.49-.63-.75-1.34-1.87-1.8-4.39-.77-6.52.99-2.03,2.92-3.46,4.94-4.48,3.3-1.64,6.97-2.38,10.58-3.1,8.33-1.66,16.66-3.33,24.99-4.99,2.43-.48,4.86-.97,7.28-1.45,10.67-2.13,23.6-4.43,34.28-6.55.05,0,.11-.02.16-.03"/>
        </g>
        <path class="cls-1" d="m113.35,71.66c0,2.57-5.73,4.65-12.8,4.65s-12.8-2.09-12.8-4.65c0-.4.14-.79.4-1.16h-.02v-28.7h0c0-.13,0-.26,0-.39,0-5.79,5.55-10.47,12.41-10.47s12.41,4.68,12.41,10.47c0,.13,0,.26,0,.39h0v28.7h-.02c.26.37.4.76.4,1.16Z"/>
        <g class="cls-11">
          <g>
            <path class="cls-7" d="m74.18,76.7c2.56,2.04,5.48,4.62,7.76,6.98l.02.14c-.5.12-.96.26-1.1.29-.85.17-1.69.34-2.53.53-1.5.33-2.97.76-4.45,1.15-1.17.3-1.84.02-2.7-.84-1.85-1.85-3.56-3.88-5.3-5.86l.05-.05c.62-.33,1.26-.61,1.93-.81.41-.13.83-.23,1.25-.33,1.64-.4,3.29-.79,4.93-1.19.05,0,.09-.02.13-.04v.02Z"/>
            <path class="cls-8" d="m83.4,83.62c-.11-.11-.8.05-1.43.2l-.02-.14c-2.27-2.37-5.2-4.94-7.76-6.98v-.02s.1-.05.14-.09c.05-.08.06-.18.07-.27.02-.28.04-.55.06-.83v-.12c.1-.02.21,0,.31.02.23.07.41.24.58.41,2.68,2.61,5.37,5.22,8.05,7.83Z"/>
            <path class="cls-8" d="m64.72,77.77c3.09-.78,6.17-1.56,9.25-2.33.16-.03.32-.07.47-.08v.12c-.02.28-.03.55-.05.83,0,.09-.02.19-.07.27-.04.05-.09.07-.15.09-.04.02-.09.03-.13.04-1.64.4-3.28.79-4.93,1.19-.42.1-.84.2-1.25.33-.67.2-1.31.48-1.93.81l-.05.05c-.38-.44-.77-.88-1.16-1.32Z"/>
          </g>
          <g>
            <path class="cls-2" d="m81.96,83.82c.64-.16,1.33-.31,1.43-.2-2.68-2.61-5.37-5.22-8.05-7.83-.17-.17-.35-.34-.58-.41-.1-.03-.21-.04-.32-.02-.16,0-.32.05-.47.08-3.09.78-6.17,1.55-9.25,2.33.4.43.78.88,1.16,1.32,1.74,1.98,3.45,4.01,5.3,5.86.86.86,1.53,1.14,2.7.84,1.48-.39,2.95-.81,4.45-1.15.84-.19,1.68-.36,2.53-.53.14-.02.61-.16,1.1-.29Z"/>
            <path class="cls-5" d="m65.94,79.05c.62-.33,1.26-.61,1.93-.81.41-.13.83-.23,1.25-.33,1.64-.4,3.29-.79,4.93-1.19.05,0,.09-.02.13-.04.05-.02.11-.05.15-.09.05-.08.06-.18.07-.27.02-.28.04-.55.06-.83"/>
            <path class="cls-5" d="m74.18,76.7c2.56,2.04,5.48,4.62,7.76,6.98"/>
          </g>
        </g>
        <g class="cls-11">
          <g>
            <g>
              <path class="cls-6" d="m58.27,84.58c.69,2.48-.76,5.44-3.59,6.97-3.08,1.67-6.66,1.05-8.21-1.33-.06-.1-.12-.2-.18-.3-1.43-2.64.02-6.18,3.21-7.91,3.2-1.74,6.96-1,8.38,1.64.16.3.29.62.38.95Z"/>
              <path class="cls-6" d="m54.68,91.55c2.83-1.53,4.28-4.48,3.59-6.97.94,1.05,1.4,2.51,1.24,3.92-.23,1.96-1.65,3.66-3.4,4.59-1.75.94-3.78,1.19-5.76,1.16-.79-.02-1.62-.09-2.3-.5-1.12-.67-1.55-2.06-1.89-3.33l.32-.2c1.54,2.39,5.13,3,8.21,1.33Z"/>
            </g>
            <g>
              <path class="cls-2" d="m58.27,84.58c-.09-.33-.22-.64-.38-.95-1.43-2.64-5.18-3.37-8.38-1.64-3.2,1.73-4.64,5.27-3.21,7.91.05.1.12.2.18.3,1.54,2.39,5.13,3,8.21,1.33,2.83-1.53,4.28-4.48,3.59-6.97Z"/>
              <path class="cls-2" d="m46.15,90.42c.34,1.26.78,2.65,1.89,3.33.68.41,1.51.48,2.3.5,1.99.04,4.02-.22,5.76-1.16,1.75-.93,3.16-2.63,3.4-4.59.16-1.4-.3-2.87-1.24-3.92-.03-.05-.08-.09-.12-.14"/>
            </g>
          </g>
        </g>
        <path class="cls-2" d="m87.73,71.54l-.19,3.23c-.04.61-.07,1.24.2,1.79.28.58.84.96,1.39,1.28,1.82,1.05,3.84,1.74,5.93,2.02.67.09,1.35.14,2.03.17,2.49.14,5.01.14,7.46-.3,2.62-.48,5.12-1.47,7.56-2.56.57-.25,1.16-.53,1.54-1.02.24-.31.39-.68.49-1.06.36-1.39.14-2.92-.62-4.14"/>
        <g class="cls-11">
          <path class="cls-9" d="m12.53,130.11c6.9-2.82,12.6-7.46,18.36-12.08,6.06-4.87,12.51-9.34,19.8-12.14,3.77-1.45,7.79-2.5,11.86-2.1,1.92.19,1.91-2.81,0-3-7.53-.75-15.19,2.84-21.56,6.49-6.61,3.79-12.2,8.86-18.27,13.41-3.41,2.56-7.03,4.91-10.99,6.53-1.76.72-.99,3.62.8,2.89h0Z"/>
        </g>
        <g class="cls-11">
          <path class="cls-9" d="m64.1,101.69c-1.13-2.26,1.08-4.47,2.7-5.75,1.9-1.5,4.12-2.61,6.39-3.44,4.86-1.78,10.06-2.55,15.13-3.53,11.78-2.27,23.56-4.54,35.34-6.8,6.71-1.29,13.41-2.58,20.12-3.87,1.89-.36,1.09-3.26-.8-2.89-12.76,2.46-25.52,4.91-38.28,7.37-6.3,1.21-12.6,2.43-18.9,3.64-5.3,1.02-10.67,1.91-15.64,4.1-4.6,2.03-11.62,6.77-8.65,12.69.87,1.73,3.46.21,2.59-1.51h0Z"/>
        </g>
        <path class="cls-3" d="m100.22,72.89c.62-.04,1.19-.49,1.38-1.08-.75-.21-1.5-.42-2.26-.63.99.08,2-.23,2.78-.85.23-.19.46-.45.42-.74-.05-.33-.41-.52-.73-.6-1.19-.31-2.53-.02-3.47.77,1.57-.2,3.24-.44,4.46-1.46s1.66-3.12.47-4.17c-.48-.43-1.14-.6-1.77-.7-2.4-.36-4.95.29-6.88,1.76.87,1.62,3.27,1.5,4.97.78,1.4-.59,2.69-1.42,3.8-2.45.55-.5,1.09-1.21.88-1.92-.18-.61-.85-.93-1.46-1.12-2.34-.72-4.93-.58-7.18.39-.4.18-.86.47-.83.91.03.61.87.75,1.48.68,1.81-.2,3.6-.58,5.33-1.13,2.38-.75,4.91-2.08,5.66-4.46.21-.66.23-1.49-.29-1.95-.24-.22-.56-.32-.87-.41-2.01-.62-4.07-1.17-6.17-1.19s-4.28.53-5.88,1.89c-.39.33-.76.91-.44,1.31.18.23.5.27.79.3,1.51.14,3.04.16,4.55.08,1.84-.1,3.78-.41,5.17-1.61s1.94-3.54.69-4.89c-.83-.89-2.14-1.11-3.35-1.19-1.83-.12-3.68-.05-5.5.2-.61.09-1.25.21-1.73.59s-.74,1.12-.4,1.64c.26.4.77.55,1.24.61,2.45.3,4.78-1,6.91-2.26,1.35-.8,2.91-2.09,2.46-3.59-.39-1.29-2-1.69-3.34-1.81-1.67-.15-3.47-.17-4.86.75-.22.14-.44.36-.41.62.04.32.41.46.73.51,2.37.41,4.9-.2,6.83-1.63.56-.42,1.12-1.14.77-1.74-.13-.23-.37-.37-.6-.5-1.97-1.07-4.32-1.45-6.53-1.06-.67.12-1.49.83-1,1.3.13.13.33.16.51.19,1.89.24,3.88-.74,4.83-2.38.15-.25.27-.53.28-.82,0-.97-1.22-1.38-2.19-1.52-.44-.06-.9-.12-1.3.05s-.72.64-.56,1.05c2.04.5,4.28.08,6-1.12"/>
        <path class="cls-4" d="m99.14,35.71c-.2.26.07.67.4.72s.64-.12.93-.28c-.65-.23-1.41.49-1.21,1.15.55.45,1.49.23,1.79-.41-.88-.26-1.9.46-1.96,1.37.57.32,1.38.12,1.73-.43-.98-.03-1.89.87-1.88,1.86.77.46,1.87.24,2.4-.48-.65-.03-1.35.15-1.78.64s-.5,1.32-.03,1.77,1.43.23,1.54-.42c-.45.06-.91.12-1.29.35-.62.36-.95,1.25-.54,1.84s1.56.43,1.64-.29c-.92.29-1.62,1.17-1.68,2.13.56.36,1.43.04,1.62-.6-.53.2-1.02.52-1.42.92-.29.29-.54.65-.56,1.06-.04.6.5,1.17,1.1,1.17s1.14-.57,1.1-1.17c-1.13.54-1.87,1.81-1.8,3.06.78.31,1.74-.56,1.5-1.37-.64.29-1.31.61-1.67,1.21s-.23,1.54.43,1.78c.82.29,1.51-.66,1.87-1.45-.54.24-1.09.5-1.53.9-.4.36-.71.88-.68,1.42s.48,1.07,1.02,1.06.98-.7.66-1.15c-.58.46-1.17.94-1.48,1.61s-.23,1.58.37,2,1.66-.05,1.57-.78c-1.17.79-1.83,2.28-1.63,3.68.96.24,2.04-.48,2.18-1.46-.87.4-1.52,1.22-1.71,2.16-.05.25-.06.54.09.75.23.33.77.31,1.09.06s.48-.65.63-1.02c-1.16.93-1.86,2.4-1.87,3.89.84.47,2.06-.18,2.14-1.14-1.31.55-2.23,1.93-2.23,3.36.83.44,2.01-.18,2.12-1.12-.62.32-1.25.71-1.6,1.31s-.28,1.5.31,1.87,1.57-.24,1.32-.89c-1.17.69-1.83,2.16-1.55,3.49.53.13,1.13-.25,1.24-.78-.82.68-1.21,1.84-.96,2.87.26-.21.52-.42.77-.62-.72.45-1.1,1.38-.91,2.21"/>
      </g>
    </g>
  </g>
</svg>